<svg width="252" height="93" viewBox="0 0 252 93" fill="none" xmlns="http://www.w3.org/2000/svg">
<mask id="mask0_1198_8623" style="mask-type:luminance" maskUnits="userSpaceOnUse" x="167" y="2" width="15" height="14">
<path d="M167.918 2.62305H181.151V15.945H167.918V2.62305Z" fill="white"/>
</mask>
<g mask="url(#mask0_1198_8623)">
<mask id="mask1_1198_8623" style="mask-type:luminance" maskUnits="userSpaceOnUse" x="167" y="2" width="15" height="14">
<path d="M174.533 2.62305C170.88 2.62305 167.918 5.60508 167.918 9.28238C167.918 12.963 170.88 15.945 174.533 15.945C178.189 15.945 181.151 12.963 181.151 9.28238C181.151 5.60508 178.189 2.62305 174.533 2.62305Z" fill="white"/>
</mask>
<g mask="url(#mask1_1198_8623)">
<path d="M167.918 2.62305H181.151V15.945H167.918V2.62305Z" fill="black"/>
</g>
</g>
<path d="M50.9165 41.8779H51.2961L56.4414 62.1228H66.5486L71.6284 41.8779H72.0736L72.846 62.1228H86.7107L84.2363 20.4072H66.8759L61.7438 41.6538H61.2463L56.1141 20.4072H38.8192L36.2793 62.1228H50.144L50.9165 41.8779Z" fill="black"/>
<path d="M86.9346 41.3246C86.9346 37.5023 87.2553 34.2138 87.9034 31.4525C88.5482 28.6847 89.6349 26.4144 91.1634 24.6383C92.6886 22.8557 94.7048 21.5377 97.212 20.6842C99.7159 19.8341 102.809 19.4058 106.494 19.4058C110.213 19.4058 113.315 19.8341 115.803 20.6842C118.291 21.5377 120.297 22.8557 121.825 24.6383C123.351 26.4144 124.437 28.6847 125.085 31.4525C125.73 34.2138 126.054 37.5023 126.054 41.3246C126.054 44.9557 125.756 48.1355 125.164 50.8671C124.578 53.5921 123.541 55.8624 122.048 57.6813C120.556 59.4936 118.546 60.8544 116.026 61.7672C113.502 62.67 110.324 63.1247 106.494 63.1247C102.662 63.1247 99.4835 62.67 96.9632 61.7672C94.4397 60.8544 92.4333 59.4936 90.9408 57.6813C89.4483 55.8624 88.4042 53.5921 87.8118 50.8671C87.2259 48.1355 86.9346 44.9557 86.9346 41.3246ZM101.192 34.3654V51.7238H106.717C108.556 51.7238 109.875 51.5129 110.671 51.0911C111.463 50.6628 111.862 49.6874 111.862 48.1651V30.8067H106.272C104.508 30.8067 103.221 31.0242 102.41 31.4525C101.598 31.8743 101.192 32.8463 101.192 34.3654Z" fill="black"/>
<path d="M146.496 62.1228H127.931V20.4072H146.496C150.214 20.4072 153.323 20.7895 155.83 21.5539C158.334 22.3118 160.341 23.5244 161.853 25.1917C163.362 26.8623 164.438 29.0139 165.087 31.65C165.731 34.2795 166.055 37.4625 166.055 41.2057C166.055 44.9489 165.731 48.1484 165.087 50.8009C164.438 53.4568 163.362 55.6183 161.853 57.2856C160.341 58.9562 158.334 60.182 155.83 60.9629C153.323 61.7373 150.214 62.1228 146.496 62.1228ZM146.718 31.0832H141.193V51.4468H146.718C148.558 51.4468 149.873 51.2359 150.659 50.8141C151.451 50.3858 151.85 49.4104 151.85 47.8881V34.6419C151.85 33.1229 151.451 32.1508 150.659 31.7291C149.873 31.3007 148.558 31.0832 146.718 31.0832Z" fill="black"/>
<path d="M181.194 62.1228V20.4072H167.932V62.1228H181.194Z" fill="black"/>
<path d="M211.584 36.698H198.321V31.0832H212.579L214.228 20.4072H185.059V62.1228H214.569V51.4468H198.321V46.3855H211.584V36.698Z" fill="black"/>
</svg>
