<svg width="24" height="24" viewBox="0 0 24 24" fill="none" xmlns="http://www.w3.org/2000/svg">
<rect x="3" y="3" width="18" height="18" rx="9" stroke="currentColor" stroke-width="2"/>
<path d="M11.5 8L11.5 5" stroke="currentColor" stroke-width="1.7"/>
<path d="M11.5 19L11.5 16" stroke="currentColor" stroke-width="1.7"/>
<path d="M11.868 17.196C11.1773 17.196 10.5007 17.0653 9.838 16.804C9.17533 16.5427 8.592 16.1693 8.088 15.684L9.278 14.256C9.642 14.6013 10.0573 14.8813 10.524 15.096C11 15.3013 11.462 15.404 11.91 15.404C12.4513 15.404 12.862 15.2967 13.142 15.082C13.422 14.8673 13.562 14.578 13.562 14.214C13.562 13.9527 13.492 13.7473 13.352 13.598C13.2213 13.4393 13.0393 13.2993 12.806 13.178C12.5727 13.0567 12.302 12.9353 11.994 12.814L10.622 12.212C10.2767 12.072 9.94067 11.8853 9.614 11.652C9.29667 11.4093 9.03067 11.106 8.816 10.742C8.61067 10.378 8.508 9.944 8.508 9.44C8.508 8.87067 8.662 8.362 8.97 7.914C9.278 7.466 9.70267 7.11133 10.244 6.85C10.7853 6.57933 11.4013 6.444 12.092 6.444C12.708 6.444 13.3007 6.56067 13.87 6.794C14.4393 7.02733 14.934 7.35867 15.354 7.788L14.304 9.076C13.9773 8.80533 13.6367 8.59533 13.282 8.446C12.9273 8.29667 12.5307 8.222 12.092 8.222C11.644 8.222 11.2847 8.32 11.014 8.516C10.7527 8.70267 10.622 8.96867 10.622 9.314C10.622 9.55667 10.6967 9.75733 10.846 9.916C10.9953 10.0747 11.1913 10.2147 11.434 10.336C11.6767 10.448 11.9427 10.5647 12.232 10.686L13.59 11.232C14.01 11.4 14.374 11.61 14.682 11.862C14.9993 12.114 15.242 12.4173 15.41 12.772C15.5873 13.1267 15.676 13.556 15.676 14.06C15.676 14.62 15.522 15.138 15.214 15.614C14.9153 16.09 14.4813 16.4727 13.912 16.762C13.352 17.0513 12.6707 17.196 11.868 17.196Z" fill="currentColor"/>
</svg>
