<svg width="24" height="24" viewBox="0 0 24 24" fill="currentColor" xmlns="http://www.w3.org/2000/svg">
<path fill-rule="evenodd" clip-rule="evenodd" d="M16 10C16 12.2091 14.2091 14 12 14C9.79086 14 8 12.2091 8 10C8 7.79086 9.79086 6 12 6C14.2091 6 16 7.79086 16 10ZM14 10C14 11.1046 13.1046 12 12 12C10.8954 12 10 11.1046 10 10C10 8.89543 10.8954 8 12 8C13.1046 8 14 8.89543 14 10Z" fill="currentColor"/>
<path fill-rule="evenodd" clip-rule="evenodd" d="M20 10C20 15.8455 14.4213 20.9936 12.5811 22.5328C12.2402 22.8179 11.7598 22.8179 11.4189 22.5328C9.57871 20.9936 4 15.8455 4 10C4 5.58172 7.58172 2 12 2C16.4183 2 20 5.58172 20 10ZM18 10C18 12.3068 16.8836 14.6366 15.3692 16.6967C14.2143 18.2677 12.9222 19.554 12 20.3874C11.0778 19.554 9.78571 18.2677 8.63082 16.6967C7.1164 14.6366 6 12.3068 6 10C6 6.68629 8.68629 4 12 4C15.3137 4 18 6.68629 18 10Z" fill="currentColor"/>
</svg>
