<svg width="252" height="93" viewBox="0 0 252 93" fill="none" xmlns="http://www.w3.org/2000/svg">
<mask id="mask0_1208_14366" style="mask-type:luminance" maskUnits="userSpaceOnUse" x="167" y="2" width="15" height="14">
<path d="M167.918 2.62286H181.151V15.9448H167.918V2.62286Z" fill="white"/>
</mask>
<g mask="url(#mask0_1208_14366)">
<mask id="mask1_1208_14366" style="mask-type:luminance" maskUnits="userSpaceOnUse" x="167" y="2" width="15" height="14">
<path d="M174.533 2.62286C170.88 2.62286 167.918 5.6049 167.918 9.2822C167.918 12.9628 170.88 15.9448 174.533 15.9448C178.189 15.9448 181.151 12.9628 181.151 9.2822C181.151 5.6049 178.189 2.62286 174.533 2.62286Z" fill="white"/>
</mask>
<g mask="url(#mask1_1208_14366)">
<path d="M167.918 2.62286H181.151V15.9448H167.918V2.62286Z" fill="black"/>
</g>
</g>
<path d="M50.9167 41.878H51.2964L56.4416 62.1229H66.5489L71.6287 41.878H72.0738L72.8463 62.1229H86.711L84.2365 20.4073H66.8762L61.744 41.6539H61.2465L56.1143 20.4073H38.8194L36.2795 62.1229H50.1443L50.9167 41.878Z" fill="black"/>
<path d="M86.9346 41.3244C86.9346 37.5022 87.2553 34.2137 87.9034 31.4524C88.5482 28.6846 89.6349 26.4142 91.1634 24.6382C92.6886 22.8556 94.7048 21.5375 97.212 20.6841C99.7159 19.834 102.809 19.4056 106.494 19.4056C110.213 19.4056 113.315 19.834 115.803 20.6841C118.291 21.5375 120.297 22.8556 121.825 24.6382C123.351 26.4142 124.437 28.6846 125.085 31.4524C125.73 34.2137 126.054 37.5022 126.054 41.3244C126.054 44.9556 125.756 48.1353 125.164 50.867C124.578 53.592 123.541 55.8623 122.048 57.6812C120.556 59.4934 118.546 60.8543 116.026 61.767C113.502 62.6699 110.324 63.1246 106.494 63.1246C102.662 63.1246 99.4835 62.6699 96.9632 61.767C94.4397 60.8543 92.4333 59.4934 90.9408 57.6812C89.4483 55.8623 88.4042 53.592 87.8118 50.867C87.2259 48.1353 86.9346 44.9556 86.9346 41.3244ZM101.192 34.3652V51.7237H106.717C108.556 51.7237 109.875 51.5128 110.671 51.091C111.463 50.6627 111.862 49.6873 111.862 48.165V30.8066H106.272C104.508 30.8066 103.221 31.024 102.41 31.4524C101.598 31.8742 101.192 32.8462 101.192 34.3652Z" fill="black"/>
<path d="M146.496 62.1229H127.931V20.4073H146.496C150.214 20.4073 153.323 20.7896 155.83 21.554C158.334 22.3119 160.341 23.5245 161.853 25.1918C163.362 26.8624 164.438 29.0141 165.087 31.6501C165.731 34.2796 166.055 37.4626 166.055 41.2058C166.055 44.949 165.731 48.1485 165.087 50.8011C164.438 53.4569 163.362 55.6184 161.853 57.2857C160.341 58.9563 158.334 60.1821 155.83 60.963C153.323 61.7374 150.214 62.1229 146.496 62.1229ZM146.718 31.0834H141.193V51.4469H146.718C148.558 51.4469 149.873 51.236 150.659 50.8142C151.451 50.3859 151.85 49.4105 151.85 47.8882V34.642C151.85 33.123 151.451 32.151 150.659 31.7292C149.873 31.3008 148.558 31.0834 146.718 31.0834Z" fill="black"/>
<path d="M181.194 62.1229V20.4073H167.931V62.1229H181.194Z" fill="black"/>
<path d="M211.583 36.6982H198.321V31.0834H212.578L214.228 20.4073H185.058V62.1229H214.568V51.4469H198.321V46.3857H211.583V36.6982Z" fill="black"/>
</svg>
