<svg width="252" height="93" viewBox="0 0 252 93" fill="none" xmlns="http://www.w3.org/2000/svg">
<mask id="mask0_1208_14366" style="mask-type:luminance" maskUnits="userSpaceOnUse" x="168" y="8" width="14" height="14">
<path d="M168 8H181.233V21.322H168V8Z" fill="white"/>
</mask>
<g mask="url(#mask0_1208_14366)">
<mask id="mask1_1208_14366" style="mask-type:luminance" maskUnits="userSpaceOnUse" x="168" y="8" width="14" height="14">
<path d="M174.615 8C170.962 8 168 10.982 168 14.6593C168 18.3399 170.962 21.322 174.615 21.322C178.271 21.322 181.233 18.3399 181.233 14.6593C181.233 10.982 178.271 8 174.615 8Z" fill="white"/>
</mask>
<g mask="url(#mask1_1208_14366)">
<path d="M168 8H181.233V21.322H168V8Z" fill="black"/>
</g>
</g>
<path d="M50.6372 47.4707H51.0168L56.1621 67.7156H66.2693L71.3491 47.4707H71.7943L72.5667 67.7156H86.4314L83.957 26H66.5966L61.4645 47.2466H60.967L55.8348 26H38.5399L36 67.7156H49.8647L50.6372 47.4707Z" fill="black"/>
<path d="M87 46.9188C87 43.0965 87.3208 39.808 87.9688 37.0468C88.6136 34.2789 89.7003 32.0086 91.2288 30.2326C92.7541 28.4499 94.7703 27.1319 97.2774 26.2785C99.7813 25.4284 102.874 25 106.56 25C110.278 25 113.381 25.4284 115.868 26.2785C118.356 27.1319 120.362 28.4499 121.891 30.2326C123.416 32.0086 124.503 34.2789 125.151 37.0468C125.796 39.808 126.12 43.0965 126.12 46.9188C126.12 50.55 125.822 53.7297 125.229 56.4613C124.644 59.1863 123.606 61.4566 122.113 63.2755C120.621 65.0878 118.611 66.4487 116.091 67.3614C113.567 68.2642 110.389 68.719 106.56 68.719C102.727 68.719 99.5489 68.2642 97.0287 67.3614C94.5051 66.4487 92.4988 65.0878 91.0062 63.2755C89.5137 61.4566 88.4696 59.1863 87.8772 56.4613C87.2913 53.7297 87 50.55 87 46.9188ZM101.257 39.9596V57.318H106.782C108.622 57.318 109.941 57.1071 110.736 56.6854C111.528 56.257 111.928 55.2817 111.928 53.7594V36.4009H106.337C104.573 36.4009 103.287 36.6184 102.475 37.0468C101.663 37.4685 101.257 38.4406 101.257 39.9596Z" fill="black"/>
<path d="M145.565 67.7156H127V26H145.565C149.283 26 152.392 26.3822 154.9 27.1467C157.404 27.9045 159.41 29.1171 160.922 30.7844C162.431 32.455 163.508 34.6067 164.156 37.2428C164.801 39.8722 165.125 43.0553 165.125 46.7985C165.125 50.5417 164.801 53.7412 164.156 56.3937C163.508 59.0495 162.431 61.2111 160.922 62.8784C159.41 64.549 157.404 65.7748 154.9 66.5557C152.392 67.33 149.283 67.7156 145.565 67.7156ZM145.787 36.676H140.262V57.0395H145.787C147.627 57.0395 148.943 56.8287 149.728 56.4069C150.52 55.9785 150.92 55.0032 150.92 53.4809V40.2347C150.92 38.7157 150.52 37.7436 149.728 37.3219C148.943 36.8935 147.627 36.676 145.787 36.676Z" fill="black"/>
<path d="M181.275 67.5V25.7845H168.013V67.5H181.275Z" fill="black"/>
<path d="M210.525 42.2908H197.262V36.676H211.52L213.17 26H184V67.7156H213.51V57.0395H197.262V51.9783H210.525V42.2908Z" fill="black"/>
</svg>
