<svg width="24" height="25" viewBox="0 0 24 25" fill="none" xmlns="http://www.w3.org/2000/svg">
<path d="M16.0419 6.31194C16.0419 8.5677 14.2266 10.3856 12.0004 10.3856C9.7743 10.3856 7.95898 8.5677 7.95898 6.31194C7.95898 4.05621 9.7743 2.23828 12.0004 2.23828C14.2266 2.23828 16.0419 4.05621 16.0419 6.31194Z" stroke="currentColor" stroke-width="2"/>
<path fill-rule="evenodd" clip-rule="evenodd" d="M8.82279 15.3472H15.1763C17.8859 15.3472 20.0825 17.5438 20.0825 20.2535V21.8096H22.045V20.2535C22.045 16.46 18.9698 13.3848 15.1763 13.3848H8.82279C5.02931 13.3848 1.9541 16.46 1.9541 20.2535V21.8096H3.91658V20.2535C3.91658 17.5438 6.11317 15.3472 8.82279 15.3472Z" fill="currentColor"/>
</svg>
