<svg width="24" height="24" viewBox="0 0 24 24" fill="none" xmlns="http://www.w3.org/2000/svg">
<path d="M16.0415 6.07366C16.0415 8.32942 14.2261 10.1473 12 10.1473C9.77384 10.1473 7.95853 8.32942 7.95853 6.07366C7.95853 3.81793 9.77384 2 12 2C14.2261 2 16.0415 3.81793 16.0415 6.07366Z" stroke="black" stroke-width="2"/>
<path fill-rule="evenodd" clip-rule="evenodd" d="M8.82325 15.1098H15.1768C17.8864 15.1098 20.083 17.3064 20.083 20.016V21.5722H22.0455V20.016C22.0455 16.2226 18.9703 13.1473 15.1768 13.1473H8.82325C5.02977 13.1473 1.95456 16.2226 1.95456 20.016V21.5722H3.91704V20.016C3.91704 17.3064 6.11363 15.1098 8.82325 15.1098Z" fill="black"/>
</svg>
