<svg width="24" height="24" viewBox="0 0 24 24" fill="none" xmlns="http://www.w3.org/2000/svg">
<path d="M16.0419 6.07366C16.0419 8.32942 14.2266 10.1473 12.0004 10.1473C9.7743 10.1473 7.95898 8.32942 7.95898 6.07366C7.95898 3.81793 9.7743 2 12.0004 2C14.2266 2 16.0419 3.81793 16.0419 6.07366Z" stroke="#0096C7" stroke-width="2"/>
<path fill-rule="evenodd" clip-rule="evenodd" d="M8.82376 15.109H15.1773C17.8869 15.109 20.0835 17.3056 20.0835 20.0152V21.5714H22.046V20.0152C22.046 16.2217 18.9708 13.1465 15.1773 13.1465H8.82376C5.03029 13.1465 1.95508 16.2217 1.95508 20.0152V21.5714H3.91756V20.0152C3.91756 17.3056 6.11415 15.109 8.82376 15.109Z" fill="#0096C7"/>
</svg>
