<svg width="24" height="25" viewBox="0 0 24 25" fill="none" xmlns="http://www.w3.org/2000/svg">
<path fill-rule="evenodd" clip-rule="evenodd" d="M9.55806 0.868666C9.31903 0.684333 9.04082 0.564541 8.74776 0.519762C8.4547 0.474982 8.15569 0.506576 7.87688 0.611784C6.57322 1.1154 5.36244 1.854 4.29852 2.79464C4.07311 2.99646 3.89795 3.25339 3.78835 3.54301C3.67875 3.83262 3.63802 4.14612 3.66973 4.45615C3.75973 5.40902 3.60013 6.32898 3.16573 7.12114C2.73254 7.91456 2.05575 8.5207 1.22776 8.91425C0.956976 9.04073 0.719696 9.23523 0.53666 9.48075C0.353623 9.72627 0.230403 10.0153 0.17777 10.3227C-0.0592566 11.7629 -0.0592566 13.2355 0.17777 14.6757C0.289368 15.3553 0.729763 15.8475 1.22776 16.0854C2.05575 16.4777 2.73254 17.0851 3.16693 17.8773C3.60013 18.6707 3.75973 19.5894 3.66973 20.5423C3.61573 21.1142 3.79813 21.7621 4.29852 22.2038C5.36243 23.1444 6.57321 23.883 7.87688 24.3866C8.15551 24.4917 8.4543 24.5233 8.74716 24.4785C9.04001 24.4337 9.31801 24.314 9.55686 24.1297C10.2948 23.5704 11.1312 23.2553 12 23.2553C12.8688 23.2553 13.704 23.5704 14.442 24.1297C14.886 24.4663 15.51 24.6233 16.1232 24.3866C17.4268 23.883 18.6376 23.1444 19.7015 22.2038C20.2019 21.7621 20.3855 21.1155 20.3303 20.5423C20.2403 19.5894 20.3987 18.6694 20.8343 17.8773C21.2675 17.0838 21.9443 16.479 22.7723 16.0854C23.2691 15.8475 23.7107 15.3553 23.8223 14.6757C24.0592 13.2355 24.0592 11.7629 23.8223 10.3227C23.7697 10.0153 23.6464 9.72627 23.4634 9.48075C23.2804 9.23523 23.0431 9.04073 22.7723 8.91425C21.9443 8.5207 21.2675 7.91456 20.8331 7.12114C20.3987 6.32898 20.2403 5.40902 20.3303 4.45615C20.3619 4.14613 20.3212 3.83266 20.2116 3.54307C20.102 3.25347 19.9269 2.99653 19.7015 2.79464C18.6376 1.854 17.4268 1.1154 16.1232 0.611784C15.8445 0.506796 15.5458 0.475317 15.2529 0.520093C14.9601 0.56487 14.6821 0.684542 14.4432 0.868666C13.704 1.42672 12.8676 1.74308 12 1.74308C11.1324 1.74308 10.296 1.42798 9.55806 0.868666ZM8.40007 12.4992C8.40007 11.4924 8.77935 10.5268 9.45447 9.81483C10.1296 9.10288 11.0453 8.70292 12 8.70292C12.9548 8.70292 13.8705 9.10288 14.5456 9.81483C15.2207 10.5268 15.6 11.4924 15.6 12.4992C15.6 13.506 15.2207 14.4716 14.5456 15.1836C13.8705 15.8955 12.9548 16.2955 12 16.2955C11.0453 16.2955 10.1296 15.8955 9.45447 15.1836C8.77935 14.4716 8.40007 13.506 8.40007 12.4992Z" fill="#999999"/>
</svg>
